name rise37.2698peak67.6939fall79.5734.mot
datacolumns 19
datarows 17
range 10.45163300000000 10.47829600000000
endheader
time	ground_force1_vx	ground_force1_vy	ground_force1_vz	ground_force1_px	ground_force1_py	ground_force1_pz	ground_force2_vx	ground_force2_vy	ground_force2_vz	ground_force2_px	ground_force2_py	ground_force2_pz	ground_torque1_x	ground_torque1_y	ground_torque1_z	ground_torque2_x	ground_torque2_y	ground_torque2_z	
10.45163300000000	-8.58926400000000	46.45117200000000	-11.53973900000000	0.34570700000000	0.00000000000000	0.08943500000000	-51.17270200000000	785.61482300000000	-41.35818700000000	0.12720800000000	0.00000000000000	-0.06894200000000	0.00000000000000	-7.88203500000000	0.00000000000000	0.00000000000000	-15.26859800000000	0.00000000000000	
10.45330000000000	-9.22308900000000	53.06328300000000	-12.68275200000000	0.34887400000000	0.00000000000000	0.09034300000000	-51.97280700000000	783.13684699999999	-41.03345200000000	0.12626300000000	0.00000000000000	-0.06883600000000	0.00000000000000	-8.72754100000000	0.00000000000000	0.00000000000000	-15.23867000000000	0.00000000000000	
10.45496600000000	-9.69355700000000	59.60255300000000	-13.67864300000000	0.35183100000000	0.00000000000000	0.09119000000000	-52.79036600000000	780.57084799999996	-40.69789500000000	0.12531600000000	0.00000000000000	-0.06872800000000	0.00000000000000	-9.48482700000000	0.00000000000000	0.00000000000000	-15.21141500000000	0.00000000000000	
10.45662800000000	-9.98800900000000	66.00338100000000	-14.50989900000000	0.35460900000000	0.00000000000000	0.09198200000000	-53.62454400000000	777.91400999999996	-40.35139000000000	0.12436600000000	0.00000000000000	-0.06861900000000	0.00000000000000	-10.14102400000000	0.00000000000000	0.00000000000000	-15.18674600000000	0.00000000000000	
10.45829300000000	-10.10218800000000	72.22585900000000	-15.16841700000000	0.35723100000000	0.00000000000000	0.09272600000000	-54.47441400000000	775.16341100000000	-39.99380700000000	0.12341500000000	0.00000000000000	-0.06850900000000	0.00000000000000	-10.68956400000000	0.00000000000000	0.00000000000000	-15.16456000000000	0.00000000000000	
10.45996300000000	-10.03946000000000	78.25515500000000	-15.65481100000000	0.35972000000000	0.00000000000000	0.09342600000000	-55.33895800000000	772.31603500000006	-39.62501900000000	0.12246400000000	0.00000000000000	-0.06839700000000	0.00000000000000	-11.12979400000000	0.00000000000000	0.00000000000000	-15.14473700000000	0.00000000000000	
10.46162500000000	-9.80954800000000	84.09891300000000	-15.97712000000000	0.36209100000000	0.00000000000000	0.09408800000000	-56.21706400000000	769.36878500000000	-39.24490400000000	0.12151300000000	0.00000000000000	-0.06828300000000	0.00000000000000	-11.46617100000000	0.00000000000000	0.00000000000000	-15.12714200000000	0.00000000000000	
10.46329200000000	-9.42695900000000	89.78326600000000	-16.14912900000000	0.36436000000000	0.00000000000000	0.09471400000000	-57.10752800000000	766.31848300000001	-38.85334000000000	0.12056400000000	0.00000000000000	-0.06816800000000	0.00000000000000	-11.70717700000000	0.00000000000000	0.00000000000000	-15.11162500000000	0.00000000000000	
10.46496500000000	-8.90929900000000	95.34800100000000	-16.18851400000000	0.36653700000000	0.00000000000000	0.09530900000000	-58.00905600000000	763.16188999999997	-38.45021600000000	0.11961800000000	0.00000000000000	-0.06805100000000	0.00000000000000	-11.86408400000000	0.00000000000000	0.00000000000000	-15.09801800000000	0.00000000000000	
10.46662600000000	-8.27561800000000	100.84144100000000	-16.11498200000000	0.36863300000000	0.00000000000000	0.09587400000000	-58.92026400000000	759.89571000000001	-38.03542400000000	0.11867600000000	0.00000000000000	-0.06793300000000	0.00000000000000	-11.94970500000000	0.00000000000000	0.00000000000000	-15.08614300000000	0.00000000000000	
10.46829400000000	-7.54493000000000	106.31551399999999	-15.94857700000000	0.37065600000000	0.00000000000000	0.09641200000000	-59.83968000000000	756.51660500000003	-37.60886900000000	0.11773800000000	0.00000000000000	-0.06781300000000	0.00000000000000	-11.97723400000000	0.00000000000000	0.00000000000000	-15.07580300000000	0.00000000000000	
10.46996900000000	-6.73498800000000	111.82134900000000	-15.70823900000000	0.37261300000000	0.00000000000000	0.09692600000000	-60.76574500000000	753.02120800000000	-37.17046600000000	0.11680700000000	0.00000000000000	-0.06769100000000	0.00000000000000	-11.95924500000000	0.00000000000000	0.00000000000000	-15.06678900000000	0.00000000000000	
10.47163300000000	-5.86136400000000	117.40567500000000	-15.41070100000000	0.37450800000000	0.00000000000000	0.09741700000000	-61.69681800000000	749.40613199999996	-36.72014100000000	0.11588200000000	0.00000000000000	-0.06756700000000	0.00000000000000	-11.90691600000000	0.00000000000000	0.00000000000000	-15.05888100000000	0.00000000000000	
10.47330000000000	-4.93685900000000	123.10815700000001	-15.06974200000000	0.37634800000000	0.00000000000000	0.09788600000000	-62.63117600000000	745.66798500000004	-36.25783700000000	0.11496500000000	0.00000000000000	-0.06744200000000	0.00000000000000	-11.82948600000000	0.00000000000000	0.00000000000000	-15.05184300000000	0.00000000000000	
10.47496500000000	-3.97122500000000	128.95968900000000	-14.69579100000000	0.37813500000000	0.00000000000000	0.09833600000000	-63.56701600000000	741.80338400000005	-35.78351400000000	0.11405800000000	0.00000000000000	-0.06731500000000	0.00000000000000	-11.73395100000000	0.00000000000000	0.00000000000000	-15.04542800000000	0.00000000000000	
10.47663500000000	-2.97116200000000	134.98163099999999	-14.29585700000000	0.37987300000000	0.00000000000000	0.09876800000000	-64.50246300000001	737.80896700000005	-35.29714700000000	0.11315900000000	0.00000000000000	-0.06718600000000	0.00000000000000	-11.62498400000000	0.00000000000000	0.00000000000000	-15.03937800000000	0.00000000000000	
10.47829600000000	-1.94055200000000	141.18585200000001	-13.87371900000000	0.38156400000000	0.00000000000000	0.09918200000000	-65.43556900000000	733.68141000000003	-34.79873500000000	0.11227200000000	0.00000000000000	-0.06705500000000	0.00000000000000	-11.50504200000000	0.00000000000000	0.00000000000000	-15.03342600000000	0.00000000000000	
